<svg id="Layer_1" data-name="Layer 1" xmlns="http://www.w3.org/2000/svg" viewBox="0 0 737.83 289.47"><defs><style>.cls-1{fill:#fff;stroke:#1d1d1b;stroke-miterlimit:10;stroke-width:6.91px;}</style></defs><path class="cls-1" d="M112.52,58c2.27-.08,4.53-.1,6.76-.07,58.83,1,84.27,54,137.66-.46,26.42-27,60.75-47,98.08-52.54,37.8-5.63,72.66,5,102.92,27.44,22,16.28,43.65,51.57,74.17,50.46,15.81-.58,30.43-8,45.43-13,35.76-12,77.05-10.33,109.21,9.41s52.93,58.77,46.44,95.94c-5.67,32.41-30.94,59.46-61.39,71.94s-65.21,11.6-96.84,2.52c-23.59-6.77-48.84-17.93-71.53-8.57-12,4.94-21,14.9-31.3,22.71-45.25,34.27-110.07,24-162.48,2.21-22.92-9.54-45.83-21.15-70.64-22.11-56.58-2.18-104.65,45.51-161.14,22.75C29.32,247.06.4,195,3.71,143.78,7.21,89.75,63.2,59.83,112.52,58Z"/></svg>