<svg id="Layer_1" data-name="Layer 1" xmlns="http://www.w3.org/2000/svg" viewBox="0 0 387.35 352.79"><defs><style>.cls-1,.cls-2{fill-rule:evenodd;}.cls-2{fill:#e41e72;stroke:#e41e72;stroke-width:5px;}.cls-2,.cls-3{stroke-miterlimit:10;}.cls-3{fill:none;stroke:#fff;stroke-width:9px;}.cls-4{fill:#fff;}</style></defs><path class="cls-1" d="M186.86,240.24a.2.2,0,0,0,.13.28c8.49,2,16.71,3.68,24.7,6.1a36.77,36.77,0,0,1,11.3,6c8.52,6.51,8.82,17.7,1.07,25.11-5.4,5.17-12.17,7.63-19.31,8.76-18.61,3-36.29-.05-52.72-9.45-5.8-3.33-10.54-7.76-12.8-14a.19.19,0,0,0-.21-.12c-23.64,3.34-39.34-9.86-53.72-25.41a48,48,0,0,1-12.62-25c-1.6-9.78,2.14-18.17,10.31-20.16,4.56-1.11,10.4-1,14.51.94,7.52,3.59,14.23,8.92,21.19,13.66a61.41,61.41,0,0,1,5.79,5.11.21.21,0,0,0,.32-.06c3-6.6,6.52-12.64,8.43-19.16,2.43-8.32-5.83-18.39-15.73-20.38-5.65-1.14-10.9-.16-15.32,3.68-2.38,2.07-4.85,3.23-7.82,1.78s-3.52-4.12-3.51-7.24c.05-8.23-4.31-13.83-11.46-17.21s-14-2.94-20.09,2.34c-2.35,2-4.65,3.41-7.74,2-3.31-1.46-3.63-4.2-3.63-7.49,0-8.48-4.35-14.44-11.91-17.84-7.12-3.21-14-2.57-20,2.77-3.69,3.25-6.8,3.79-9.44,1.26-3-2.92-2.41-6.07-.35-9.33Q23.94,99,41.6,70.69a24.53,24.53,0,0,1,1.47-2.14c4.72-6.14,6.33-11.47,2-19.9-6.77-13.21-2.31-26.4,7.32-37.34S74.57-2.4,87.7,2c11.59,3.84,22.48,9.91,33.52,15.29,8.64,4.21,17.09,8.8,25.51,13.42,2.48,1.37,4.07,1.28,6.41-.54C184.69,5.48,219.34.53,255.23,18c35,17.09,52.33,46.83,53.12,85.87.06,3.06,1.1,4.16,3.66,5.2q23.5,9.54,46.89,19.37c7.86,3.33,15,7.85,20.52,14.54,9.1,11,10,23.16,4.59,35.93-5.2,12.31-14.34,19.94-27.9,21.23-3.14.29-3.68,2-4.4,4.17q-12.12,36.76-24.27,73.52c-1.41,4.25-4.18,6.43-7.38,5.56-3.95-1.07-5.16-3.85-4.95-7.88.45-8.25-3.73-14-10.91-17.45-7.35-3.56-14.57-3.07-20.9,2.35-2.52,2.16-4.95,3.59-8.1,2.16s-3.62-4.3-3.53-7.59c.22-7.74-3.89-13.09-10.5-16.41-7.05-3.54-14.18-3.47-20.68,1.47-2.49,1.89-4.71,3.9-8.08,2.44-3.53-1.52-3.72-4.58-3.82-7.9-.25-7.49-4.34-12.68-10.85-15.8s-13.33-3.16-19.64,1.09a8.73,8.73,0,0,0-3,3C192.21,228.68,189.52,234.57,186.86,240.24Zm-.09,13.26c0,.19-.09.38-.13.58a.21.21,0,0,1-.22.15c-2.93-.35-5.87-.71-8.8-1-6.17-.65-8.56-4.55-6-10.18q12.29-26.52,24.77-53c2.63-5.59,3.84-6.1,10.09-5.67,28.1,2,51.41-7.73,70-28.86,3.9-4.43,5.42-4.92,10.81-2.75,14.48,5.84,29,11.62,43.37,17.72a13.33,13.33,0,0,1,5.66,5.31c3.58,6,8.24,10.34,15.19,11.59,7.86,1.41,15.72-3.21,19.92-11.28,5-9.62,4.45-19.21-2.55-25.81a52.29,52.29,0,0,0-14.42-9.85c-17.29-7.65-34.86-14.65-52.33-21.87-6.28-2.6-6.86-3.54-6.52-10.27,1-19.58-3.65-37.71-15.39-53.48-30.07-40.44-85.14-45.72-122.64-12-4.89,4.39-6.2,4.54-12.16,1.4-15.85-8.35-31.67-16.74-47.55-25-7-3.67-14.32-6.64-22.51-6.15-12.05.72-22.18,13.8-20.34,26.24C56.78,50.94,66.93,56.9,80,54.22a9.77,9.77,0,0,1,6.45.83c14.17,7.33,28.17,15,42.3,22.34,4.08,2.14,5,5,4.49,9.51-.89,7.23-1.69,14.6-1.25,21.83,1.23,20.28,9.44,37.65,23.77,52,3.3,3.31,4.1,6.36,2,10.71-8.43,17.57-16.56,35.28-24.9,52.9-2.94,6.22-7.23,6.76-12.14,2-5.26-5.07-10.54-10.15-16.2-14.75a53.55,53.55,0,0,0-11.7-7.07c-5.69-2.57-8.72,0-7.56,6.1a28.75,28.75,0,0,0,2.48,7.73c7.62,14.79,19.47,25.05,34.84,31.06,9.49,3.7,13.81,2,18.43-7.47,9-18.54,17.68-37.28,26.39-56a4.07,4.07,0,0,0-.24-3.34c-1.83-2.89-2.09-5.59.17-8.3s5.29-2.58,8.23-1.34c3.16,1.34,6.58,2.48,9.19,4.57,1.81,1.45,3.61,4.58,3.26,6.58s-3.13,4.53-5.29,5.07a5.4,5.4,0,0,0-4.17,3.46c-4.45,9.63-9.05,19.18-13.46,28.83-4.58,10-9.3,20-13.4,30.22-2.27,5.68-1.1,9.45,4.24,12.52a85,85,0,0,0,19.51,8.54c11.34,3.14,23,3.72,34.22-.89,2.7-1.11-3.18-5.31-.87-7.38.08-.08,4.27-1.11,4.19-1.19-2.2-2.14-.39-2.91-3-3.8-7.48-2.56-15.28-4.2-22.95-6.2A.21.21,0,0,0,186.77,253.5Zm-45.33-79.11a.2.2,0,0,0,.32,0c3.67-5.53,3.58-5.55-.24-10.18-2.18-2.66-4.35-5.35-6.27-8.19-13.1-19.43-18.26-40.88-15.77-64.13.38-3.56-.61-5.35-3.79-7-9.59-4.84-19-10-28.43-15.14a17.85,17.85,0,0,0-10.52-2.35,39.46,39.46,0,0,1-13.11-1.59c-2.9-.81-4.05-.12-5.45,2.14C49.51,82,40.73,95.91,32,109.88c-1.57,2.5-3.1,5-4.84,7.85a.21.21,0,0,0,.16.31c7.5.23,13.87,2.11,19.61,6.12,5.91,4.13,9.8,9.75,12.4,16.47a.19.19,0,0,0,.23.11c8.91-2.75,17.38-2.54,25.61,1.44a33.48,33.48,0,0,1,17,18.75.22.22,0,0,0,.24.12C118.55,156.81,131.34,161.3,141.44,174.39Zm180.17,81c6.49-19.7,12.76-38.72,18.7-56.73a.23.23,0,0,0-.05-.21c-4.84-4.95-9.13-9.43-13.54-13.79-1.56-1.54-3.21-3.26-5.17-4.08-10.95-4.64-22-8.92-33-13.56-2.63-1.12-4.12-1-6.24,1.15-18.9,19.26-41.87,29.18-68.92,29.31-6.67,0-6.76-.15-8.76,6.23a.2.2,0,0,0,.19.26c16.28-.54,28.15,6.27,35.07,21.34a.2.2,0,0,0,.23.11c19.85-5.24,34.21,1.56,43.2,19.87a.19.19,0,0,0,.23.1c14.58-4.66,26.92-1.15,37.72,10.08A.2.2,0,0,0,321.61,255.39Z"/><path class="cls-1" d="M25.77,263.26a.19.19,0,0,1-.14.05c-6.08-.63-8.3-4.93-6.2-9.51,5.26-11.45,10.66-22.83,16-34.25,6-12.84,12-25.69,18-38.52,2.44-5.18,7.79-6.41,11-2.56,2.24,2.72,1.54,5.54.17,8.44q-13,27.38-25.83,54.8c-2.75,5.82-5.28,11.77-8.39,17.4C29.28,261.11,26.83,262.38,25.77,263.26Z"/><path class="cls-1" d="M257.41,271.62a.17.17,0,0,1,0,.18c-.82,2.13-1.21,3.33-1.74,4.47q-16.86,36-33.76,71.91a10.48,10.48,0,0,1-1,1.81c-2,2.64-4.78,3.48-7.58,2.22-3.37-1.51-4.57-4.82-2.86-8.73,2.12-4.86,4.48-9.6,6.73-14.4q13.6-28.95,27.22-57.9c.66-1.4,1.38-3.36,2.54-3.8,2.07-.78,4.86-1.39,6.69-.59S256.36,270.12,257.41,271.62Z"/><path class="cls-1" d="M6.82,223.31a.2.2,0,0,1-.15.05c-5.91-.9-8-5.25-5.86-9.83,6-13,12.1-25.9,18.17-38.85,1.33-2.85,2.6-5.73,4-8.53,1.9-3.75,5.23-5.16,8.4-3.7,3.33,1.53,4.65,5,2.91,8.71-7.39,16-14.79,31.92-22.51,47.72C10.77,221,8,222.32,6.82,223.31Z"/><path class="cls-1" d="M287.8,287.37s0,.05,0,.07c-.3.78-.57,1.59-.93,2.36q-11,23.57-22.1,47.13c-2.36,5-7.83,6.26-10.6,2.29-1.16-1.67-1.66-4.89-.85-6.68,7.29-16.22,14.9-32.29,22.5-48.36,1.52-3.22,4.16-4.74,7.78-3.53C286.76,281.72,287.87,284.19,287.8,287.37Z"/><path class="cls-2" d="M188.15,252c9.06,2.26,15.47,3.64,22.95,6.2a8.75,8.75,0,0,1,3.39,2.45,5.29,5.29,0,0,1-.17,7.42,11.66,11.66,0,0,1-3.52,2.5c-11.2,4.61-22.89,4-34.22.9a85.49,85.49,0,0,1-19.51-8.55c-5.35-3.07-6.52-6.84-4.24-12.52,4.1-10.22,8.81-20.2,13.4-30.22,4.41-9.65,9-19.2,13.46-28.82a5.4,5.4,0,0,1,4.17-3.47c2.15-.54,4.93-3.05,5.29-5.07s-1.45-5.13-3.26-6.58c-2.61-2.09-6-3.23-9.19-4.57-2.94-1.24-5.89-1.47-8.24,1.34s-2,5.41-.16,8.3a4.11,4.11,0,0,1,.24,3.34c-8.71,18.7-17.35,37.44-26.39,56-4.62,9.47-8.94,11.17-18.43,7.47C108.34,242,96.5,231.78,88.88,217a28.65,28.65,0,0,1-2.49-7.73c-1.15-6.11,1.88-8.67,7.57-6.1a53.55,53.55,0,0,1,11.7,7.07c5.66,4.6,10.94,9.68,16.2,14.75,4.9,4.73,9.2,4.19,12.14-2,8.33-17.62,16.47-35.33,24.89-52.9,2.09-4.35,1.28-7.4-2-10.71-14.33-14.36-22.54-31.73-23.78-52-.44-7.23.36-14.6,1.25-21.83.56-4.48-.4-7.37-4.49-9.51-13.72-7.16-27.31-14.57-41.06-21.7A13.85,13.85,0,0,0,80.07,53c-12.55,2.15-22.2-3.8-23.88-15.16-1.84-12.44,8.29-25.52,20.35-26.24,8.19-.49,15.47,2.48,22.51,6.15,15.87,8.29,31.7,16.68,47.54,25,6,3.14,7.27,3,12.17-1.4,37.5-33.68,92.56-28.4,122.64,12,11.74,15.77,16.37,33.9,15.38,53.48-.34,6.73.24,7.67,6.53,10.27,17.47,7.22,35,14.22,52.33,21.87a52.59,52.59,0,0,1,14.42,9.85c7,6.6,7.56,16.19,2.55,25.81-4.2,8.07-12.06,12.69-19.92,11.28-7-1.24-11.62-5.63-15.19-11.59a13.45,13.45,0,0,0-5.66-5.31c-14.38-6.1-28.89-11.88-43.37-17.72-5.4-2.17-6.92-1.68-10.81,2.75-18.58,21.13-41.89,30.83-70,28.86-6.25-.43-7.46.08-10.1,5.67q-12.47,26.44-24.77,53c-2.61,5.63,9.18,9.68,15.35,10.33"/><path class="cls-2" d="M141.44,174.39c-10.1-13.09-22.89-17.58-39-13.34a.22.22,0,0,1-.24-.12,33.48,33.48,0,0,0-17-18.75c-8.23-4-16.7-4.19-25.61-1.44a.19.19,0,0,1-.23-.11c-2.6-6.72-6.49-12.34-12.4-16.47-5.74-4-12.11-5.89-19.61-6.12a.21.21,0,0,1-.16-.31c1.74-2.83,3.27-5.35,4.84-7.85C40.73,95.91,49.51,82,58.18,68c1.4-2.26,2.55-3,5.45-2.14a39.46,39.46,0,0,0,13.11,1.59,17.85,17.85,0,0,1,10.52,2.35c9.41,5.17,18.84,10.3,28.43,15.14,3.18,1.6,4.17,3.39,3.79,7-2.49,23.25,2.67,44.7,15.77,64.13,1.92,2.84,4.09,5.53,6.27,8.19,3.82,4.63,3.91,4.65.24,10.18A.2.2,0,0,1,141.44,174.39ZM92.07,94.88l.71-.68a.19.19,0,0,0,0-.26c-1.61-2-2.89-4.63-5-5.79-2.89-1.6-5.83-.42-7.65,2.65-4.61,7.73-9.29,15.43-13.84,23.21-2.21,3.78-1.39,7.32,1.91,9.33s6.68,1.07,9-2.8c4.62-7.58,9.07-15.25,13.57-22.89A25.94,25.94,0,0,0,92,95,.18.18,0,0,1,92.07,94.88Zm19.61,10.89v0c.68-5.1-1-7.87-4.43-8.71-3.6-.87-6.67.89-7.71,4.93q-3.36,13.11-6.33,26.32c-.9,4,1.09,7.24,4.47,8.05,3.58.86,6.67-.9,7.73-5C107.74,122.51,109.79,113.57,111.68,105.77Z"/><path class="cls-2" d="M321.28,255.47c-10.8-11.23-23.14-14.74-37.72-10.08a.19.19,0,0,1-.23-.1c-9-18.31-23.35-25.11-43.2-19.87a.2.2,0,0,1-.23-.11C233,210.24,221.11,203.43,204.83,204a.2.2,0,0,1-.19-.26c2-6.38,2.09-6.2,8.76-6.23,27-.13,50-10,68.92-29.31,2.12-2.17,3.61-2.27,6.24-1.15,10.95,4.64,22,8.92,33,13.56,2,.82,3.61,2.54,5.17,4.08,4.41,4.36,8.7,8.84,13.54,13.79a.23.23,0,0,1,.05.21c-5.94,18-12.21,37-18.7,56.73A.2.2,0,0,1,321.28,255.47Zm-31.79-69.59a.18.18,0,0,0,0-.21c-1.4-1.78-2.61-4.22-4.57-5.46-3-1.91-5.85-.27-7.84,2.32q-7.85,10.2-15.46,20.58c-3,4.12-2.83,7.78.36,10.17,3.35,2.5,6.62,1.73,9.86-2.51Q279.5,200.71,287,190.5A42.16,42.16,0,0,0,289.49,185.88Zm19,11.71c.5-3.92-.4-6.4-3-7.68a6.84,6.84,0,0,0-9.11,3.55c-.9,2-1.52,4.14-2.25,6.22-2.37,6.75-4.84,13.47-7,20.28a5.61,5.61,0,0,0,3.46,7.4c3.34,1.38,6.7.62,8.05-2.77,3.67-9.17,6.85-18.53,9.91-27C308.46,197.62,308.47,197.61,308.47,197.59Z"/><path class="cls-1" d="M92.07,94.88A.18.18,0,0,0,92,95a25.94,25.94,0,0,1-1.18,2.7c-4.5,7.64-9,15.31-13.57,22.89-2.36,3.87-5.77,4.79-9,2.8s-4.12-5.55-1.91-9.33c4.55-7.78,9.23-15.48,13.84-23.21,1.82-3.07,4.76-4.25,7.65-2.65,2.09,1.16,3.37,3.78,5,5.79a.19.19,0,0,1,0,.26Z"/><path class="cls-1" d="M111.69,105.74v0c-1.89,7.8-3.94,16.74-6.26,25.6-1.06,4.06-4.15,5.82-7.73,5-3.38-.81-5.37-4-4.47-8.05q3-13.2,6.33-26.32c1-4,4.11-5.8,7.71-4.93C110.7,97.87,112.37,100.64,111.69,105.74Z"/><path class="cls-1" d="M289.47,185.67a.18.18,0,0,1,0,.21A42.16,42.16,0,0,1,287,190.5q-7.53,10.19-15.19,20.27c-3.24,4.24-6.51,5-9.86,2.51-3.19-2.39-3.4-6.05-.36-10.17q7.62-10.37,15.46-20.58c2-2.59,4.83-4.23,7.84-2.32C286.86,181.45,288.07,183.89,289.47,185.67Z"/><path class="cls-1" d="M308.47,197.59s0,0,0,0c-3.06,8.42-6.24,17.78-9.91,27-1.35,3.39-4.71,4.15-8.05,2.77A5.61,5.61,0,0,1,287,220c2.19-6.81,4.66-13.53,7-20.28.73-2.08,1.35-4.22,2.25-6.22a6.84,6.84,0,0,1,9.11-3.55C308.07,191.19,309,193.67,308.47,197.59Z"/><path class="cls-3" d="M252.09,129.9a45.79,45.79,0,1,1-84.19-36"/><path class="cls-4" d="M199.44,82.5l3.31-7.72c.53-1.24.09-2.17-1.32-2.78l-8.15-3.48Q187,65.82,185.59,62t.81-9l4.8-11.2q4.5-10.53,16.89-5.22l11.63,5q12.39,5.31,7.88,15.83l-2.79,6.54L210,57.48l2-4.58c.53-1.25.09-2.17-1.33-2.78l-2.46-1c-1.41-.61-2.39-.29-2.92,1l-3.45,8.06c-.53,1.24-.09,2.17,1.32,2.77l8,3.42q6.28,2.68,7.83,6.46t-.64,8.87l-4.79,11.2q-4.52,10.53-16.9,5.22L185,91.09q-12.48-5.34-8-15.86l2.8-6.54,14.85,6.36-2,4.58c-.53,1.25-.09,2.17,1.32,2.78l2.46,1C197.94,84.07,198.91,83.75,199.44,82.5Z"/><path class="cls-4" d="M250.44,54.63,263,60q12.48,5.34,8,15.86l-14.31,33.44q-4.52,10.51-17,5.18l-12.56-5.38q-12.47-5.34-8-15.86l14.32-33.44Q238,49.29,250.44,54.63ZM242.64,101l12.64-29.54c.54-1.24.09-2.17-1.32-2.77l-3.56-1.53c-1.42-.6-2.39-.28-2.92,1L234.83,97.65c-.53,1.25-.09,2.17,1.32,2.78l3.57,1.53C241.13,102.56,242.11,102.24,242.64,101Z"/></svg>