<svg id="Layer_1" data-name="Layer 1" xmlns="http://www.w3.org/2000/svg" viewBox="0 0 246.72 631.28"><defs><style>.cls-1,.cls-2,.cls-3{fill-rule:evenodd;}.cls-2{fill:#e41e72;}.cls-3,.cls-5{fill:#fff;}.cls-4{fill:none;stroke:#fff;stroke-width:8.31px;}.cls-4,.cls-6{stroke-miterlimit:10;}.cls-6{fill:#019e97;stroke:#1d1d1b;stroke-width:5.54px;}.cls-7{fill:#1d1d1b;}</style></defs><path class="cls-1" d="M92.44,528.26C90.9,530,89.87,531.4,91.3,534a10.15,10.15,0,0,1-.41,10.37,4.14,4.14,0,0,0-.6,3c1.37,4,.89,7.55-.94,11.57-1.5,3.28-.82,7.52-1.41,11.29-.17,1.07-1.53,1.91-2.14,3-.91,1.58-2.07,3.2-2.37,4.93-1.57,9-2.46,18.2-4.44,27.13-2.29,10.3-8.51,17.9-18.15,22.61-13.68,6.68-24.61,3.56-31.27-10.09A412.69,412.69,0,0,1,.7,537.53c-1.95-7.72.15-12.45,6.71-16.79C18.38,513.49,30,507.18,43,504.8c10.95-2,20.09-6.5,29.15-12.7,19.81-13.57,42.06-22.61,63.85-32.4,2.4-1.07,3.23-2.37,3.3-5,.52-21.4,1.27-42.8,1.71-64.2a12.34,12.34,0,0,0-2.23-6.75c-3.51-5.16-7.5-10-11.21-15-16.72-22.63-26.38-47.82-27.39-76.09-.09-2.45-1.23-3.28-3.19-4.13C72,277.73,53.78,260,42.42,235.35,21.08,189,37.19,133.25,80,105c43.21-28.51,101-21.37,135.32,16.7,49.25,54.66,29.47,140.4-38.75,167.62-2.77,1.11-3.28,2.61-3.27,5.27.12,25.58,0,51.16.27,76.74,0,2.48,1.35,5.21,2.75,7.38,2.56,3.95,5.79,7.47,8.46,11.36,17,24.93,20.18,64-12.54,87a6.05,6.05,0,0,0-2,4.12c-.92,14.29-1.85,28.59-2.33,42.9-.16,5,4.89,8.14,6.27,12.78.08.25,1,.31,1.56.33,8.49.38,12.79,8.78,20.47,10.77.71.18,1,1.63,1.7,2.28a11.55,11.55,0,0,0,3.56,2.7c3.57,1.26,6.39,3,7.89,6.79a12.17,12.17,0,0,0,3.69,5c7.39,5.64,15.2,10.76,22.38,16.65a29.72,29.72,0,0,1,11.14,21.24c1.14,15.57-3.06,23-15,26.53a26.84,26.84,0,0,1-8.65,1c-10.27-.52-20.59-.79-30.77-2.14-17.61-2.35-35.14-5.35-52.68-8.27-7.27-1.22-11.73-5.76-12.49-13.15-1.89-18.33-.86-36.38,6.14-53.73a14.8,14.8,0,0,0,1-4.42q1.23-18.3,2.33-36.62c.34-5.64.58-11.29.93-18.23L91.08,516.93C97.24,522.61,97.28,522.65,92.44,528.26Zm48.88-181.87a9.51,9.51,0,0,0-1.62-4.15,110.07,110.07,0,0,1-14.6-45.69c-.56-6.48.24-7.3,6.71-7.13,3.47.09,6.95.12,10.43,0,5.14-.11,6.24.71,6.28,5.88.14,21.41.49,42.83.17,64.23-.47,31-1.46,62-2.22,93a13.35,13.35,0,0,0,.15,1.63c11.46-3.95,18.16-12.85,18.27-24.66q.62-69.43,1-138.89c0-4.66,2.48-5.82,5.9-7.15,30.51-11.82,50.67-33.39,59.93-64.76,14.21-48.12-12.4-100.46-59.63-117.8A97.77,97.77,0,0,0,46.73,157.47c-19.13,49.71,5.75,106.08,55.44,125.35,3.62,1.41,5.12,3.29,5.16,7.32.32,31.71,12.91,58.71,32.4,83a11.87,11.87,0,0,0,1.66,1.07C141.39,364.43,141.47,355.41,141.32,346.39ZM68.1,513.21c3.37-3.21,8-5.25,11.81-3.21,6,3.18,9.64-.21,14.25-2.46Q125,492.45,156.1,477.81c12.94-6.1,24.09-14.23,29.72-27.8,8.28-20,4.08-38.63-7.26-56.2-1.32-2.05-2.9-3.94-5.15-7-.31,13.46-1.15,25.62-.75,37.75.59,18.36-7.95,29.95-24.22,37.43-21.44,9.85-42.65,20.21-63.73,30.8-6.66,3.34-12.7,7.95-18.82,12.27-6,4.19-5.93,5.31-.82,11.34C66.21,515.2,67.11,514.16,68.1,513.21Zm78.67-22.9c-1.19.62-2.09,2.8-2.19,4.32-1.08,16.62-2,33.25-2.94,49.88-.15,2.61-.41,5.22-.67,8.45h7.63c-.38-3.76-1.26-7.19-.95-10.52.48-5.17,4-8.51,8.71-10.18,2.94-1,4.06-2.6,4.19-5.67.57-13.31,1.36-26.61,2-39.91.05-1.06,0-2.13,0-3.71C157,485.52,151.75,487.67,146.77,490.31Zm77.84,121.16a4.73,4.73,0,0,0,.83-.07c5.19-.77,10.43-2,12.88-7.13s-.77-9.81-3.93-13.57a77.75,77.75,0,0,0-11-10.07c-.84-.67-3.45-.53-4.13.23-3.74,4.18-7.86,8.29-10.46,13.17s-3.4,10.39-5.27,16.56ZM47.06,609.71c2.71,5,6.6,9.47,12.82,9.19s8.54-5.73,10.64-10.48c1.71-3.87,2.33-8.22,3.54-12.33.84-2.87-.4-4.28-2.94-5.4-9.14-4-22.23-3.76-32.47,1.17C41.5,598,44,604,47.06,609.71ZM7.56,536.5c2.87,10,5.52,20.09,9,29.88,5.23,14.62,11,29,16.81,43.45a42.88,42.88,0,0,0,6.19,10.27c2.7,3.43,6.55,4.82,12.08,3.87-9.34-5.51-12.8-14.19-16.31-22.77-9.57-23.38-18.43-47-24.49-71.61-.13-.51-.34-1-.64-1.88C6.35,530.15,6.67,533.39,7.56,536.5ZM219.7,618.25a526.3,526.3,0,0,1-80.93-10.71c-1.33-.28-2.66-.61-4.05-.94.34,3.94,1.13,5.2,5.37,6.12,8.68,1.89,17.38,3.95,26.18,5q28.33,3.3,56.81,5.43c3.74.29,7.82-1.43,11.43-3,1.87-.79,3.07-3.18,4.57-4.85l-1-1C232.43,617.8,226.19,618.6,219.7,618.25ZM131.57,297.1l8.36,31.42,1.36-.31V297.1ZM197.21,560a37.13,37.13,0,0,0-8.38,5.06c-.72.52-1.19,2.83-.83,3.12,1.05.82,3,1.81,3.85,1.35,3.82-2,7.39-4.56,11-6.91-.08-.51-.17-1-.26-1.54C200.8,560.69,198.67,559.47,197.21,560Zm-11.45-8.24a26.72,26.72,0,0,0-7.63,4.69c-.81.66-1.24,3.14-.69,3.77.75.84,3,1.39,3.93.86,3.61-2.1,6.95-4.68,10.39-7.08l-.18-1.51C189.62,552.22,187.4,551.2,185.76,551.79ZM70.48,563a94.69,94.69,0,0,0,8.4,4.58c2.85,1.39,3.13-.44,2.82-2.55-.5-3.41-7.85-8.6-11.23-7.81-1,.21-1.69,1.33-2.87,2.32C68.79,561,69.42,562.29,70.48,563Zm11.27-15.29A25.21,25.21,0,0,0,75,543.9c-1.07-.39-2.63.56-4,.9.48,1.45.52,3.56,1.53,4.23,3.3,2.18,6.94,3.83,10.81,5.88C85.17,551.6,83.87,549.32,81.75,547.66Zm.69-13.89a15,15,0,0,0-6-3.41c-1.22-.38-2.85.51-4.29.83.58,1.51.73,3.76,1.83,4.41a108.46,108.46,0,0,0,10.69,5l1.21-.74C84.73,537.8,84,535.38,82.44,533.77Zm82.77,17.47c-.12.75.5,2.21,1,2.35,1.33.34,3.18.67,4.15,0,3.27-2.24,6.24-4.91,9.34-7.43C175.79,543,166,546.41,165.21,551.24Z"/><path class="cls-2" d="M139.73,373.12c-19.49-24.27-32.08-51.27-32.4-83,0-4-1.54-5.91-5.16-7.32C52.48,263.55,27.6,207.18,46.73,157.47a97.77,97.77,0,0,1,125.33-56.54c47.23,17.34,73.84,69.68,59.63,117.8-9.26,31.37-29.42,52.94-59.93,64.76-3.42,1.33-5.88,2.49-5.9,7.15q-.24,69.45-1,138.89c-.11,11.81-6.81,20.71-18.27,24.66a13.35,13.35,0,0,1-.15-1.63c.76-31,1.75-62,2.22-93,.32-21.4,0-42.82-.17-64.23,0-5.17-1.14-6-6.28-5.88-3.48.08-7,.05-10.43,0-6.47-.17-7.27.65-6.71,7.13a110.07,110.07,0,0,0,14.6,45.69,9.51,9.51,0,0,1,1.62,4.15c.15,9,.07,18,.07,27.8A11.87,11.87,0,0,1,139.73,373.12Z"/><path class="cls-2" d="M65.07,516.42c1.14-1.22,2-2.26,3-3.21,3.37-3.21,8-5.25,11.81-3.21,6,3.18,9.64-.21,14.25-2.46Q125,492.45,156.1,477.81c12.94-6.1,24.09-14.23,29.72-27.8,8.28-20,4.08-38.63-7.26-56.2-1.32-2.05-2.9-3.94-5.15-7-.31,13.46-1.15,25.62-.75,37.75.59,18.36-7.95,29.95-24.22,37.43-21.44,9.85-42.65,20.21-63.73,30.8-6.66,3.34-12.7,7.95-18.82,12.27C59.94,509.27,60,510.39,65.07,516.42Z"/><path class="cls-2" d="M162.6,483c-5.61,2.55-10.85,4.7-15.83,7.34-1.19.62-2.09,2.8-2.19,4.32-1.08,16.62-2,33.25-2.94,49.88-.15,2.61-.41,5.22-.67,8.45h7.63c-.38-3.76-1.26-7.19-.95-10.52.48-5.17,4-8.51,8.71-10.18,2.94-1,4.06-2.6,4.19-5.67.57-13.31,1.36-26.61,2-39.91C162.65,485.62,162.6,484.55,162.6,483Z"/><path class="cls-3" d="M203.56,610.59l21.05.88a4.73,4.73,0,0,0,.83-.07c5.19-.77,10.43-2,12.88-7.13s-.77-9.81-3.93-13.57a77.75,77.75,0,0,0-11-10.07c-.84-.67-3.45-.53-4.13.23-3.74,4.18-7.86,8.29-10.46,13.17S205.43,604.42,203.56,610.59Z"/><path class="cls-3" d="M38.65,591.86C41.5,598,44,604,47.06,609.71c2.71,5,6.6,9.47,12.82,9.19s8.54-5.73,10.64-10.48c1.71-3.87,2.33-8.22,3.54-12.33.84-2.87-.4-4.28-2.94-5.4C62,586.66,48.89,586.93,38.65,591.86Z"/><path class="cls-3" d="M10.22,527.71c-3.87,2.44-3.55,5.68-2.66,8.79,2.87,10,5.52,20.09,9,29.88,5.23,14.62,11,29,16.81,43.45a42.88,42.88,0,0,0,6.19,10.27c2.7,3.43,6.55,4.82,12.08,3.87-9.34-5.51-12.8-14.19-16.31-22.77-9.57-23.38-18.43-47-24.49-71.61C10.73,529.08,10.52,528.59,10.22,527.71Z"/><path class="cls-3" d="M238.13,614.32c-5.7,3.48-11.94,4.28-18.43,3.93a526.3,526.3,0,0,1-80.93-10.71c-1.33-.28-2.66-.61-4.05-.94.34,3.94,1.13,5.2,5.37,6.12,8.68,1.89,17.38,3.95,26.18,5q28.33,3.3,56.81,5.43c3.74.29,7.82-1.43,11.43-3,1.87-.79,3.07-3.18,4.57-4.85Z"/><path class="cls-3" d="M202.63,561.11c-1.83-.42-4-1.64-5.42-1.08a37.13,37.13,0,0,0-8.38,5.06c-.72.52-1.19,2.83-.83,3.12,1.05.82,3,1.81,3.85,1.35,3.82-2,7.39-4.56,11-6.91C202.81,562.14,202.72,561.62,202.63,561.11Z"/><path class="cls-3" d="M191.58,552.52c-2-.3-4.18-1.32-5.82-.73a26.72,26.72,0,0,0-7.63,4.69c-.81.66-1.24,3.14-.69,3.77.75.84,3,1.39,3.93.86,3.61-2.1,6.95-4.68,10.39-7.08Z"/><path class="cls-3" d="M67.6,559.49c1.19,1.47,1.82,2.8,2.88,3.46a94.69,94.69,0,0,0,8.4,4.58c2.85,1.39,3.13-.44,2.82-2.55-.5-3.41-7.85-8.6-11.23-7.81C69.52,557.38,68.78,558.5,67.6,559.49Z"/><path class="cls-3" d="M83.33,554.91c1.84-3.31.54-5.59-1.58-7.25A25.21,25.21,0,0,0,75,543.9c-1.07-.39-2.63.56-4,.9.48,1.45.52,3.56,1.53,4.23C75.82,551.21,79.46,552.86,83.33,554.91Z"/><path class="cls-3" d="M85.83,539.86c-1.1-2.06-1.83-4.48-3.39-6.09a15,15,0,0,0-6-3.41c-1.22-.38-2.85.51-4.29.83.58,1.51.73,3.76,1.83,4.41a108.46,108.46,0,0,0,10.69,5Z"/><path class="cls-3" d="M179.73,546.17c-3.94-3.18-13.73.24-14.52,5.07-.12.75.5,2.21,1,2.35,1.33.34,3.18.67,4.15,0C173.66,551.36,176.63,548.69,179.73,546.17Z"/><path class="cls-3" d="M185.48,578a18.1,18.1,0,0,1,1.07,2.43,16.17,16.17,0,0,1,.76,3.68,4.82,4.82,0,0,1-4.59,5.15,14.22,14.22,0,0,1-5.07-.48l-39.48-10.45a4.82,4.82,0,0,0-1.27-.2c.21.1.41.21.63.3l40.21,17.15a25.47,25.47,0,0,0,7.24,2.14,13.15,13.15,0,0,0,3.49-.05,5.72,5.72,0,0,0,5-6.65,13.65,13.65,0,0,0-1.55-4.85A34.39,34.39,0,0,0,185.48,578Z"/><path class="cls-4" d="M196.73,203a58.84,58.84,0,0,1-117.67,0"/><path class="cls-5" d="M110.47,182.18V171.39c0-1.74-1-2.61-3-2.61H96.12q-8.78,0-12.39-3.85t-3.62-11.09V138.18q0-14.7,17.31-14.71h16.25q17.33,0,17.32,14.71v9.13H110.23v-6.4c0-1.74-1-2.61-3-2.61h-3.44q-3,0-3,2.61v11.27q0,2.61,3,2.61H115q8.77,0,12.51,3.67t3.74,10.79v15.66q0,14.72-17.32,14.71H97.78q-17.43,0-17.43-14.71v-9.13H101.1v6.4q0,2.61,3,2.61h3.44C109.48,184.79,110.47,183.92,110.47,182.18Z"/><path class="cls-5" d="M156.61,123.47h17.55q17.43,0,17.44,14.71v46.73q0,14.72-17.44,14.71H156.61q-17.45,0-17.44-14.71V138.18Q139.17,123.48,156.61,123.47Zm14.23,58.71V140.91c0-1.74-1-2.61-3-2.61h-5c-2,0-3,.87-3,2.61v41.27c0,1.74,1,2.61,3,2.61h5C169.85,184.79,170.84,183.92,170.84,182.18Z"/><path class="cls-6" d="M52.8,125.78s-17.24-7.17-10.95-25.21c6.61-19,38-33,55.86-70.68,29.32-61.63,81.23-3.1,62,27Z"/><polygon class="cls-7" points="52.8 125.78 56.53 134.37 168.21 65.51 159.68 56.86 52.8 125.78"/><path class="cls-7" d="M110.07,101.36c6,.92,46.54,2.85,89.13-20.92,26.7-14.91-31-14.93-31-14.93Z"/></svg>