<?xml version="1.0" encoding="utf-8"?>
<!-- Generator: Adobe Illustrator 25.0.0, SVG Export Plug-In . SVG Version: 6.00 Build 0)  -->
<svg version="1.1" id="Layer_1" xmlns="http://www.w3.org/2000/svg" xmlns:xlink="http://www.w3.org/1999/xlink" x="0px" y="0px"
	 viewBox="0 0 1919.7 402.4" style="enable-background:new 0 0 1919.7 402.4;" xml:space="preserve">
<style type="text/css">
	.st0{clip-path:url(#SVGID_2_);}
	.st1{fill:#38A7DF;}
	.st2{fill:#FFFFFF;stroke:#1D1D1B;stroke-width:6.06;stroke-miterlimit:10;}
	.st3{fill:#1E71B8;stroke:#0C0D0C;stroke-width:6.06;stroke-miterlimit:10;}
</style>
<g>
	<defs>
		<rect id="SVGID_1_" x="-0.3" width="1920" height="404"/>
	</defs>
	<clipPath id="SVGID_2_">
		<use xlink:href="#SVGID_1_"  style="overflow:visible;"/>
	</clipPath>
	<g class="st0">
		<rect y="-25" class="st1" width="1940" height="427.4"/>
		<path class="st2" d="M1076.6,112.2c-21.9-8.2-46.6-4.8-65.4,9.2c-36.9-17.8-82-17.7-118.8,0.2c-20.7,10-39.6,26.9-45,49.2
			s7.4,49.5,30,53.7c-10.1,21.6-20.4,46.2-11.8,68.4c10.1,26.2,41,36.4,68.1,43.4c40.5,10.5,88.1,19.6,120.5-6.9
			c34.6,16.7,75.1,12.7,113.2,8.4c21-2.4,45.1-6.7,55.8-24.9c7.4-12.6,5.9-29-0.6-42.1s-17.4-23.5-28.6-32.8
			c-22.6-18.8-51.3-35.6-67.5-60.7C1110.4,152.3,1108.5,124.6,1076.6,112.2z"/>
		<path class="st2" d="M1578.7,69.4c-1.4,0-2.8-0.1-4.2,0c-36.7,0.6-52.6,33.7-86-0.3c-16.5-16.8-37.9-29.3-61.2-32.8
			c-23.6-3.5-45.4,3.1-64.3,17.1c-13.7,10.1-27.3,32.2-46.3,31.5c-9.9-0.4-19-5-28.4-8.1c-22.3-7.5-48.1-6.4-68.2,5.9
			s-33.1,36.7-29,59.9c3.5,20.2,19.3,37.1,38.3,44.9s40.7,7.2,60.5,1.6c14.7-4.2,30.5-11.2,44.7-5.4c7.5,3.1,13.1,9.3,19.6,14.2
			c28.3,21.4,68.7,15,101.5,1.4c14.3-5.9,28.6-13.2,44.1-13.8c35.3-1.4,65.3,28.4,100.6,14.2c30.3-12.3,48.4-44.8,46.3-76.8
			C1644.4,89.3,1609.4,70.6,1578.7,69.4z"/>
		<path class="st3" d="M1493.3,402c0-128.1-103.8-231.9-231.9-231.9S1029.5,274,1029.5,402"/>
		<path class="st2" d="M476.4,224.6c-1.4-0.1-2.8-0.1-4.2-0.1c-36.7,0.6-52.6,33.7-86-0.3c-16.5-16.8-37.9-29.3-61.2-32.8
			c-23.6-3.5-45.4,3.1-64.3,17.1c-13.7,10.2-27.3,32.2-46.3,31.5c-9.9-0.4-19-5-28.4-8.1c-22.3-7.5-48.1-6.4-68.2,5.9
			s-33.1,36.7-29,59.9c3.5,20.2,19.3,37.1,38.3,44.9s40.8,7.3,60.6,1.6c14.7-4.2,30.5-11.2,44.7-5.4c7.5,3.1,13.1,9.3,19.6,14.2
			c28.3,21.4,68.7,15,101.5,1.4c14.3-6,28.6-13.2,44.1-13.8c35.3-1.4,65.4,28.4,100.6,14.2c30.3-12.2,48.4-44.7,46.3-76.7
			C542.2,244.5,507.2,225.8,476.4,224.6z"/>
		<path class="st2" d="M1472.1,253.7c-16-0.1-27.3,6.2-43.3,9.8c-15.7,3.5-32.8-4.8-49.6-3.1c-15.8,1.6-31.6,9.1-39.9,22.6
			c-11.9,19.5-4.4,46.6,12.6,61.8s40.9,20.5,63.7,20.5c16.3,0,32.9-2.4,47.2-10.2c2.9-1.6,5.8-3.4,9.1-4c4-0.7,8,0.6,11.9,1.7
			c22.2,6.4,45.3,9.1,68.3,8c17.4-0.9,35.2-4.1,49.6-13.9s24.6-27.1,21.8-44.3c-4.8-29.3-30.8-44.4-58.3-44
			c-18.4,0.3-21.9,12-41,7.1c-16.1-4.1-31.3-10.6-48-11.9C1474.8,253.8,1473.4,253.7,1472.1,253.7z"/>
	</g>
</g>
</svg>
